<svg xmlns="http://www.w3.org/2000/svg" width="1676.318" height="920.685"><g data-name="グループ 75" transform="translate(-16.659 -102.988)"><path data-name="パス 3" d="M333.478 681.173c-69-57.233-98.139-116.941-82.059-168.125 20.637-65.683 112.316-111.1 251.531-124.6l.514 3.768C366.188 405.53 275.907 449.925 255.77 514.015c-15.65 49.811 13.068 108.216 80.866 164.454z" fill="#f0f0f0"/><path data-name="パス 4" d="M999.193 884.333c-86.114 0-179.692-10.783-272.641-31.517-114.944-25.641-220.336-64.343-304.781-111.923l2.5-3.151c84.038 47.35 188.963 85.875 303.432 111.408 103.444 23.077 207.663 33.769 301.353 30.947l.162 3.788q-14.841.45-30.025.448z" fill="#f0f0f0"/><path data-name="パス 5" d="M1196.749 860.489l-1.441-3.592c77.017-21.942 125.188-57.287 139.306-102.218 17.945-57.118-21.041-123.4-109.779-186.637-89.19-63.56-217.804-116.294-362.154-148.493l1.151-3.666c144.981 32.341 274.221 85.351 363.907 149.265 90.139 64.234 129.64 131.889 111.224 190.5-14.521 46.221-63.698 82.474-142.214 104.841z" fill="#f0f0f0"/><path data-name="パス 6" d="M489.553 885.918c-169.208-63.234-299.6-145.273-367.143-231.006l3.749-2.1c67.08 85.139 196.783 166.692 365.218 229.638z" fill="#f0f0f0"/><path data-name="パス 7" d="M1084.476 995.467q-26.179 0-53.253-.985l.193-3.788c134.7 4.914 253.54-8.668 343.708-39.286l1.683 3.518c-78.656 26.705-178.909 40.541-292.331 40.541z" fill="#f0f0f0"/><path data-name="パス 8" d="M986.299 391.85a1832.997 1832.997 0 00-85.5-21.233c-165.542-36.927-328.272-50.038-470.6-37.909l-.453-3.773c142.862-12.17 306.149.973 472.207 38.016 28.848 6.436 57.7 13.6 85.742 21.295z" fill="#f0f0f0"/><path data-name="パス 9" d="M227.727 686.861c-69-57.233-98.139-116.942-82.059-168.125 20.637-65.683 112.316-111.1 251.531-124.6l.514 3.768c-137.276 13.312-227.557 57.707-247.694 121.8-15.65 49.812 13.068 108.216 80.866 164.454z" fill="#f0f0f0"/><path data-name="パス 10" d="M893.442 890.021c-86.114 0-179.692-10.783-272.641-31.517-114.944-25.641-220.336-64.343-304.781-111.923l2.5-3.151c84.038 47.35 188.963 85.875 303.432 111.409 103.444 23.076 207.663 33.769 301.353 30.947l.163 3.788q-14.837.449-30.026.447z" fill="#f0f0f0"/><path data-name="パス 11" d="M1090.997 866.176l-1.441-3.592c77.017-21.942 125.188-57.287 139.306-102.218 17.945-57.118-21.041-123.4-109.779-186.637-89.19-63.557-217.8-116.294-362.154-148.494l1.151-3.666c144.981 32.341 274.221 85.351 363.908 149.265 90.139 64.234 129.64 131.889 111.224 190.5-14.522 46.222-63.7 82.474-142.215 104.842z" fill="#f0f0f0"/><path data-name="パス 12" d="M383.802 891.606C214.594 828.371 84.206 746.332 16.659 660.599l3.749-2.1c67.08 85.142 196.783 166.7 365.222 229.641z" fill="#f0f0f0"/><path data-name="パス 13" d="M978.725 1001.155q-26.179 0-53.253-.985l.193-3.788c134.7 4.914 253.54-8.669 343.708-39.286l1.683 3.518c-78.656 26.705-178.909 40.541-292.331 40.541z" fill="#f0f0f0"/><path data-name="パス 14" d="M880.549 397.538a1834.257 1834.257 0 00-85.5-21.233c-165.542-36.927-328.272-50.038-470.6-37.909l-.453-3.773c142.862-12.17 306.149.973 472.207 38.016 28.848 6.436 57.7 13.6 85.742 21.295z" fill="#f0f0f0"/><path data-name="パス 15" d="M93.36 585.301c32.338-30.551 83.922-49.17 130.669-38.024-43.126 25.716-74.067 63.456-87.349 106.544-5.051 16.633-8.613 35.576-25.029 45.745-10.215 6.328-23.749 7.84-36.311 6.4s-24.441-5.558-36.158-9.637l-3.153.23c9.065-40.219 24.993-80.708 57.331-111.258z" fill="#f2f2f2"/><path data-name="パス 16" d="M223.886 548.127c-39.084 7.974-74.192 26.121-100.339 51.865a69.223 69.223 0 00-13.893 18.333 34.044 34.044 0 00-2.79 20.823c1.05 6.572 3.027 13.192 2.163 19.864-1.017 6.9-5.478 13.1-12.264 17.052-8.209 5.051-18.082 7.315-27.829 9.247-10.822 2.145-22.1 4.228-30.924 10.288-1.069.734-2.358-.706-1.291-1.439 15.348-10.543 36.678-9.19 53.659-16.848 7.924-3.573 14.617-9.18 16.245-16.874 1.423-6.728-.609-13.556-1.74-20.2a36.138 36.138 0 011.827-20.446 62.814 62.814 0 0113.005-18.715 178.946 178.946 0 0143.217-32.611 215.057 215.057 0 0160.7-22.127c1.336-.272 1.58 1.521.253 1.792z" fill="#fff"/><path data-name="パス 17" d="M131.387 591.285c-9.357-8.845-9.732-22.1-.884-31.311.87-.9 2.571.2 1.7 1.1-8.26 8.567-7.881 20.928.893 29.124.921.861-.793 1.945-1.709 1.087z" fill="#fff"/><path data-name="パス 18" d="M105.812 635.875a62.515 62.515 0 0038.439-10.256c1.072-.731 2.362.709 1.291 1.439a65.059 65.059 0 01-40.025 10.6c-1.373-.076-1.073-1.863.295-1.783z" fill="#fff"/><path data-name="パス 19" d="M182.002 560.582a16.828 16.828 0 0013.113 6.833c1.378.066 1.074 1.852-.295 1.787-6.025-.326-11.465-3.148-14.526-7.532a.836.836 0 01.208-1.264 1.214 1.214 0 011.5.176z" fill="#fff"/><path data-name="パス 20" d="M290.387 674.101c-.862-.02-1.723-.041-2.6-.049a253.449 253.449 0 00-34.652 1.7c-.889.093-1.789.2-2.673.313a254.665 254.665 0 00-78.428 23.026 225 225 0 00-27.521 15.776c-11.994 8.065-24.238 17.613-38.281 21.746a43.038 43.038 0 01-4.463 1.1l-65.163-37.932c-.1-.149-.2-.286-.3-.435l-2.684-1.414c.423-.327.87-.66 1.293-.987.244-.191.5-.373.748-.564.168-.124.336-.249.479-.369.056-.042.112-.083.157-.112.143-.12.291-.22.423-.327q3.739-2.793 7.538-5.55c.01-.013.01-.013.035-.017 19.34-13.968 40.233-26.7 62.755-36.352.678-.29 1.365-.594 2.073-.866a233.025 233.025 0 0131.638-10.751q8.942-2.318 18.128-3.865a181.937 181.937 0 0148.013-1.55c31.9 3.209 62.225 14.978 82 35.872.494.533.994 1.058 1.485 1.607z" fill="#f2f2f2"/><path data-name="パス 21" d="M289.674 674.711A224.583 224.583 0 00172.5 665.22a92.509 92.509 0 00-24.197 7.591 43.7 43.7 0 00-17.106 15.211c-3.858 5.78-7.009 12.069-12.467 16.958a31.968 31.968 0 01-21.976 7.394c-10.163-.132-19.665-3.332-28.827-6.735-10.173-3.778-20.668-7.837-32.042-7.474a.91.91 0 110-1.8c19.788-.632 35.851 11.27 54.882 13.77 8.88 1.167 18.231.085 25.028-5.232 5.944-4.65 9.2-11.133 13.046-17.013a45.77 45.77 0 0116.068-15.4 84.494 84.494 0 0123.757-8.345 219.228 219.228 0 0157.808-4.113 225.089 225.089 0 0164.277 13.126c1.261.46.174 2.016-1.079 1.559z" fill="#fff"/><path data-name="パス 22" d="M184.977 662.244c-1.151-11.809 8.021-22.583 21.666-25.448 1.338-.277 1.911 1.462.572 1.739-12.717 2.65-21.246 12.712-20.1 23.707.123 1.159-2.02 1.154-2.138.002z" fill="#fff"/><path data-name="パス 23" d="M132.695 684.875a61.981 61.981 0 0038.02 11.312.91.91 0 110 1.8c-14.477.386-28.594-3.841-39.534-11.839-1.042-.763.476-2.036 1.512-1.277z" fill="#fff"/><path data-name="パス 24" d="M247.327 663.409c-.673 4.571 1.426 9.121 5.587 12.108 1.053.751-.466 2.024-1.512 1.277-4.577-3.317-6.905-8.33-6.216-13.383a1.031 1.031 0 011.069-.9 1 1 0 011.072.9z" fill="#fff"/><path data-name="パス 25" d="M1360.473 835.74c-18.271-37.932-59.427-70.077-107.9-72.818 30.36 36.433 44.447 80.741 39.769 125.083-1.878 17.1-6.079 35.945 5.326 50.172 7.1 8.853 19.24 14.109 31.646 16.31s25.236 1.687 37.9 1.164l2.878 1.11c7.502-40.446 8.651-83.09-9.619-121.021z" fill="#f2f2f2"/><path data-name="パス 26" d="M1252.367 763.763c33.629 18.578 59.457 45.613 73.813 77.264a60.429 60.429 0 015.773 21.2 34.835 34.835 0 01-5.679 20.4c-3.61 5.892-8.113 11.567-9.96 18.1a21.381 21.381 0 004.748 19.53c5.717 7.082 14.113 12.011 22.522 16.59 9.337 5.085 19.13 10.241 25.021 18.447.714.994 2.5 0 1.79-.99-10.25-14.276-30.879-19.042-43.817-31.064-6.038-5.609-10.105-12.786-8.569-20.493 1.343-6.74 5.98-12.6 9.7-18.534a37.524 37.524 0 006.435-19.775 55.372 55.372 0 00-4.784-21.31 150.754 150.754 0 00-27.7-42.953 185.789 185.789 0 00-48.343-38.031.939.939 0 10-.953 1.616z" fill="#fff"/><path data-name="パス 27" d="M1322.271 830.607c12.341-5.681 17.981-18.058 13.322-29.239-.461-1.094-2.5-.542-2.039.554 4.363 10.408-.925 21.943-12.458 27.177-1.212.552-.03 2.057 1.175 1.509z" fill="#fff"/><path data-name="パス 28" d="M1328.572 879.846c-13.39-3.2-24.856-10.537-32.112-20.545-.718-.992-2.508 0-1.79.99 7.574 10.4 19.524 18.017 33.467 21.322a.916.916 0 10.435-1.767z" fill="#fff"/><path data-name="パス 29" d="M1286.846 787.355a18.605 18.605 0 01-15.075 2.722.916.916 0 10-.435 1.767 20.865 20.865 0 0016.685-2.98.845.845 0 00.308-1.249 1.2 1.2 0 00-1.482-.259z" fill="#fff"/><path data-name="パス 30" d="M1139.488 863.576c.82.225 1.639.45 2.465.689a237.2 237.2 0 0131.956 11.418c.8.339 1.606.694 2.393 1.052a222.994 222.994 0 0164.681 43.9 189.847 189.847 0 0119.627 22.652c8.08 10.992 15.8 23.452 27.38 31.322a38.038 38.038 0 003.763 2.3l76.509-17.276c.151-.113.307-.211.458-.324l3.092-.572c-.268-.428-.556-.868-.824-1.3-.154-.249-.325-.494-.479-.743-.108-.165-.217-.329-.3-.483a6.478 6.478 0 00-.1-.15c-.087-.154-.186-.289-.268-.428q-2.408-3.689-4.885-7.362c0-.015 0-.015-.026-.026-12.643-18.632-27.243-36.539-44.6-52.009-.522-.465-1.049-.946-1.606-1.4a202.044 202.044 0 00-25.523-19.089q-7.5-4.715-15.531-8.774a171.265 171.265 0 00-44.6-15.058c-31.323-6.012-64.58-3.516-91.534 10.563-.692.369-1.365.723-2.048 1.098z" fill="#f2f2f2"/><path data-name="パス 31" d="M1139.918 864.355c40.126-2.227 80.065 6.256 114.143 24.245a80.654 80.654 0 0119.758 14 37.1 37.1 0 0110.043 19.171c1.328 6.536 1.787 13.351 4.977 19.5 3.415 6.326 9.872 11.124 17.749 13.187 9.624 2.754 19.85 2.43 29.836 1.821 11.088-.677 22.592-1.528 33.159 2.035 1.28.432 2-1.268.722-1.7-18.385-6.2-38.261.461-57.181-2.574-8.829-1.416-17.2-5.083-21.485-12.016-3.743-6.063-4.224-13.091-5.5-19.718a38.981 38.981 0 00-8.991-19.053 73.152 73.152 0 00-19.041-14.585 203.778 203.778 0 00-52.8-20.245 229.506 229.506 0 00-65.773-5.841c-1.372.076-.969 1.85.394 1.774z" fill="#fff"/><path data-name="パス 32" d="M1243.494 882.263c5.794-10.8 1.453-23.541-10.255-30.1-1.15-.64-2.383.835-1.232 1.476 10.92 6.1 14.94 17.989 9.472 28.019-.574 1.055 1.445 1.658 2.016.609z" fill="#fff"/><path data-name="パス 33" d="M1283.708 918.382a65.005 65.005 0 01-40.32-.113c-1.282-.428-2 1.271-.722 1.7a67.615 67.615 0 0041.957.046c1.286-.424.364-2.052-.915-1.631z" fill="#fff"/><path data-name="パス 34" d="M1184.307 865.701c-1.189 4.5-4.981 8.186-10.092 9.821-1.292.409-.368 2.038.915 1.631 5.634-1.828 9.826-5.889 11.193-10.844a.9.9 0 00-.647-1.153 1.14 1.14 0 00-1.369.545z" fill="#fff"/><ellipse data-name="楕円形 12" cx="18" cy="15.167" rx="18" ry="15.167" transform="translate(988.01 934.568)" fill="#fd6584"/><ellipse data-name="楕円形 13" cx="18" cy="15.167" rx="18" ry="15.167" transform="translate(1051.77 676.238)" fill="#e6e6e6"/><ellipse data-name="楕円形 14" cx="18" cy="15.167" rx="18" ry="15.167" transform="translate(716.829 255.532)" fill="#4caf50"/><path data-name="パス 35" d="M357.627 852.507c0 3.861.151 7.722.471 11.551.339 4.576.924 9.12 1.716 13.632a150.643 150.643 0 0015.123 44.059l1.131 2.1.566 1.049c.189.35.4.7.585 1.033.264.461.509.906.773 1.351.321.556.641 1.112.981 1.668.038.064.075.143.132.222.283.477.547.938.849 1.414a2.682 2.682 0 00.189.3c.32.54.66 1.1 1 1.636.377.572.736 1.16 1.113 1.732a151.72 151.72 0 002.81 4.21c.283.413.566.826.867 1.239.264.381.528.763.811 1.144.189.254.377.524.566.778.3.429.6.842.924 1.271.7.937 1.414 1.875 2.112 2.812h.019c.321.429.66.858 1 1.271v.016c1 1.271 2.036 2.542 3.074 3.8a.02.02 0 01.014 0 .014.014 0 01.005.011c.83 1.017 1.7 2 2.546 2.987v.016c.566.62 1.113 1.255 1.678 1.875.453.508.924 1.033 1.4 1.541.094.111.207.206.3.318v.016c.132.143.264.27.4.413q3 3.241 6.185 6.339l.339.334c.113.111.245.222.358.349.189.175.358.349.547.524.17.175.358.349.547.524a198.237 198.237 0 0037.392 27.789c1.829 1.065 3.7 2.1 5.563 3.1.471.254.943.509 1.414.747.132.079.283.159.415.238.264.127.509.254.773.4.245.127.49.254.754.381 1 .524 2.018 1.033 3.036 1.541.245.127.509.254.773.381.245.111.509.238.773.365 0 .016 0 .016.019.016h.019v.016h.019q1.9.929 3.847 1.811c.7.318 1.414.651 2.131.953 1.622.747 3.262 1.462 4.9 2.145.585.238 1.188.477 1.773.731.49.191.98.4 1.471.588.151.064.283.111.415.175.415.159.811.318 1.226.477.453.175.905.35 1.339.524.509.191 1 .381 1.508.556 1.886.715 3.79 1.4 5.695 2.05q10.238 3.536 20.893 6.1c.321.079.66.159 1 .238q4.554 1.072 9.164 1.954 8.061 1.573 16.273 2.574h.038l1.961.238c.057 0 .113.016.189.016 0 .016 0 .016.019 0l2.168.238a.557.557 0 00.151.016c.679.08 1.377.143 2.055.207l2.206.191 1.7.143a.433.433 0 00.151.016c.509.032 1.018.079 1.527.111h.075l1.32.1c5.261.349 10.541.508 15.9.508 5.789 0 11.54-.191 17.216-.6h.056l3.639-.286c.321-.032.622-.048.943-.079.057 0 .132-.016.188-.016.094-.016.189-.016.3-.032a.555.555 0 00.151-.016c.415-.032.83-.079 1.263-.111l1.414-.143c.471-.048.943-.111 1.414-.159.113-.016.207-.016.321-.032.339-.032.679-.079 1.018-.127.17-.016.339-.032.49-.048.339-.048.66-.079 1-.127h.019a231.486 231.486 0 0030.547-5.8c.528-.143 1.056-.27 1.584-.413.019 0 .038-.016.057-.016.151-.048.32-.079.471-.127 1.414-.381 2.81-.779 4.2-1.192a179.04 179.04 0 005.732-1.732c.509-.175 1.018-.334 1.527-.509 1.037-.334 2.055-.683 3.074-1.033 1.735-.588 3.47-1.208 5.186-1.843 1.6-.6 3.187-1.208 4.771-1.843.038-.016.094-.016.132-.048.358-.143.717-.286 1.056-.429h.019a214.663 214.663 0 0025.06-12.059q3.847-2.169 7.58-4.481c2-1.255 3.96-2.526 5.921-3.829a193.755 193.755 0 0026.757-21.545v-.016c.584-.54 1.131-1.1 1.7-1.652.094-.079.17-.159.245-.223.358-.365.7-.715 1.056-1.064v-.016c.471-.461.943-.937 1.4-1.414.113-.111.207-.206.3-.3v-.016c.377-.381.735-.763 1.113-1.16.188-.191.358-.381.547-.572v-.016a156.532 156.532 0 003.262-3.559c.283-.318.566-.651.867-.985a159.466 159.466 0 003.96-4.687v-.016c.49-.588.962-1.192 1.452-1.779l1.414-1.811c.471-.636.962-1.255 1.433-1.891l.057-.1c.471-.6.943-1.239 1.4-1.859.358-.508.717-1 1.075-1.494.226-.334.471-.667.7-1.017a3.773 3.773 0 00.245-.334l1.584-2.335c.622-.906 1.226-1.827 1.829-2.749.226-.381.471-.763.716-1.144a4.311 4.311 0 00.245-.381c.283-.445.566-.906.83-1.366.283-.445.566-.906.849-1.366.264-.445.547-.906.811-1.366.207-.349.4-.7.6-1.049a.34.34 0 01.057-.079c.094-.175.188-.334.264-.493a.34.34 0 00.057-.08c.207-.349.4-.715.6-1.064.264-.461.509-.937.773-1.4.17-.318.358-.651.528-.985.245-.461.509-.922.736-1.4.264-.477.509-.953.754-1.446a3.38 3.38 0 00.188-.365c.132-.222.226-.445.34-.667.3-.588.6-1.192.886-1.779.339-.667.66-1.351.962-2.018.3-.62.585-1.255.867-1.891l.113-.222a151.557 151.557 0 009.956-30.077v-.016a148.027 148.027 0 002.7-17.7c.019-.334.057-.651.075-.969.339-4.02.49-8.055.49-12.107 0-1.8-.038-3.575-.094-5.354-1.316-37.216-17.066-73.045-44.84-102-.6-.636-1.207-1.271-1.829-1.907s-1.263-1.255-1.886-1.875c-41.92-41.366-104.676-63.484-169.065-59.586S423.482 715.13 389.009 761.12a176.308 176.308 0 00-5.374 7.579c-17.107 25.582-26.057 54.452-26.008 83.808z" fill="#f2f2f2"/><path data-name="パス 36" d="M552.709 740.547a563.254 563.254 0 00102.1 12.417 151.681 151.681 0 0015.643-.09c11.444-.811 21.246-3.842 32.163-5.5 5.248-.794 11.094-1.375 16.378-2.232q-1.831-1.914-3.728-3.782c-11.393.811-22.964 3.466-34.494 4.7-19.6 2.1-41.56-.243-56.419-6.023-7.209-2.8-12.73-6.3-19.914-9.122a10.58 10.58 0 00-3.126-.807 12.488 12.488 0 00-5.9 1.289c-12.052 5.126-29.549 9.293-45.791 7-1.203.801 1.097 1.71 3.088 2.15z" fill="#fff"/><path data-name="パス 37" d="M480.839 758.588c-.148-.023-.3-.041-.445-.062a12.172 12.172 0 001.755-1.114z" fill="#fff"/><path data-name="パス 38" d="M383.615 768.703q10.175.685 20.456 1.02a152.9 152.9 0 0015.643-.089c11.444-.815 21.246-3.842 32.163-5.5 10.005-1.515 22.163-2.245 28.516-5.609-16.419-2.395-33.43 2.48-50.36 4.294a142.254 142.254 0 01-41.039-1.707q-2.811 3.728-5.379 7.591z" fill="#fff"/><path data-name="パス 39" d="M465.673 1003.78c1.622.747 3.262 1.462 4.9 2.145.585.238 1.188.477 1.773.731.49.191.98.4 1.471.588.151.064.283.111.415.175.415.159.811.318 1.226.477.452.175.905.35 1.339.524.509.191 1 .381 1.509.556 1.886.715 3.79 1.4 5.694 2.05q10.238 3.536 20.893 6.1c.321.079.66.159 1 .238q4.554 1.072 9.164 1.954 8.061 1.573 16.273 2.574h.038l1.961.238c.057 0 .113.016.189.016 0 .016 0 .016.019 0l2.168.238a.556.556 0 00.151.016c.679.08 1.377.143 2.055.207l2.206.191 1.7.143a.43.43 0 00.151.016c.509.032 1.018.079 1.527.111h.075l1.32.1c5.261.349 10.541.508 15.9.508 5.789 0 11.54-.191 17.216-.6h.056l3.639-.286c.321-.032.622-.048.943-.079.057 0 .132-.016.189-.016.094-.016.189-.016.3-.032a.555.555 0 00.151-.016c.415-.032.83-.079 1.264-.111l1.414-.143c.471-.048.943-.111 1.414-.159.113-.016.207-.016.321-.032.339-.032.679-.079 1.018-.127.17-.016.339-.032.49-.048.339-.048.66-.079 1-.127h.013a231.482 231.482 0 0030.547-5.8c.528-.143 1.056-.27 1.584-.413-4.935-19.391-20.285-35.748-41.54-44.265a14.675 14.675 0 005.148-7.722 12.868 12.868 0 00-2.414-11.154 17.239 17.239 0 00-10.673-6.165l-27.945-4.925c-9.363-1.538-18.449 3.566-20.365 11.44a13.158 13.158 0 00-.377 3.527c-26.907 15.088-46.273 30.738-58.51 47.357z" fill="#02e3ff"/><ellipse data-name="楕円形 15" cx="58.22" cy="49.056" rx="58.22" ry="49.056" transform="translate(489.966 834.038)" fill="#ffb8b8"/><path data-name="パス 40" d="M511.896 925.388c-6.208-3.573-12.548-10.44-16.781-15.587-11.342-13.681-15.266-30.774-10.795-47.032a17.011 17.011 0 015.011-8.651c2.742-2.286 7.221-3.37 10.567-1.754a13.813 13.813 0 01.776-12.773 30.213 30.213 0 019.955-9.991c16.342-10.6 38.274-12.792 57.1-5.7 3.637 1.42-2.336-9.546 1.47-8.489a18.215 18.215 0 0011.713-.173c3.58-1.518 15.447 7.5 14.073 4.331 5.522 2.113 9.374 6.463 10.2 11.525s-1.475 10.13-6.11 13.426c-3 2.137-6.756 3.368-10.046 5.182-11.929 7.072-15.716 20.534-8.823 31.364a42.2 42.2 0 00-11.247-4.118 14.761 14.761 0 00-11.511 2.333 11.046 11.046 0 00-3.521 9.24c.13 3.329 1.07 6.609 1.176 9.938.31 9.77 6.519 28.345-2.471 33.538-7.084 4.102-32.259-1.73-40.736-6.609z" fill="#2f2e41"/><path data-name="パス 50" d="M1488.168 477.541c0 3.861-.151 7.722-.471 11.551-.34 4.576-.924 9.12-1.716 13.632a150.624 150.624 0 01-15.123 44.059l-1.131 2.1-.566 1.049c-.188.35-.4.7-.584 1.033-.264.461-.509.906-.773 1.351-.321.556-.641 1.112-.98 1.668-.038.064-.075.143-.132.222-.283.477-.547.937-.849 1.414a2.6 2.6 0 01-.188.3c-.32.54-.66 1.1-1 1.637-.377.572-.735 1.16-1.113 1.732a151.72 151.72 0 01-2.81 4.21c-.283.413-.565.826-.867 1.239-.264.381-.528.763-.811 1.144-.189.254-.377.524-.566.778-.3.429-.6.842-.924 1.271-.7.937-1.414 1.875-2.112 2.812h-.019c-.321.429-.66.858-1 1.271v.016c-1 1.271-2.037 2.542-3.074 3.8a.022.022 0 00-.014 0 .015.015 0 00-.005.011c-.83 1.017-1.7 2-2.546 2.987v.016c-.566.62-1.113 1.255-1.678 1.875a84.876 84.876 0 01-1.4 1.541c-.094.111-.207.206-.3.318v.016c-.132.143-.264.27-.4.413q-3 3.241-6.185 6.339l-.339.334c-.113.111-.245.222-.358.35-.188.175-.358.349-.547.524-.17.175-.358.35-.547.524a198.256 198.256 0 01-37.392 27.789c-1.829 1.065-3.7 2.1-5.563 3.1-.471.254-.943.508-1.414.747-.132.079-.283.159-.415.238-.264.127-.509.254-.773.4-.245.127-.49.254-.754.381-1 .524-2.018 1.033-3.036 1.541-.245.127-.509.254-.773.381a38.31 38.31 0 00-.773.365c0 .016 0 .016-.019.016h-.019v.016h-.019q-1.895.929-3.847 1.811c-.7.318-1.414.651-2.131.953a146.634 146.634 0 01-4.9 2.145c-.584.238-1.188.477-1.773.731-.49.191-.98.4-1.47.588-.151.064-.283.111-.415.175-.415.159-.811.318-1.226.477-.452.175-.9.349-1.339.524-.509.191-1 .381-1.508.556-1.886.715-3.79 1.4-5.695 2.05q-10.238 3.536-20.893 6.1c-.321.079-.66.159-1 .238q-4.554 1.072-9.164 1.954-8.061 1.573-16.273 2.574h-.027l-1.961.238c-.057 0-.113.016-.189.016 0 .016 0 .016-.019 0l-2.168.238a.548.548 0 01-.151.016c-.679.079-1.377.143-2.056.207l-2.206.191-1.7.143a.436.436 0 01-.151.016c-.509.032-1.018.079-1.527.111h-.072l-1.32.1c-5.261.349-10.541.508-15.9.508-5.789 0-11.54-.191-17.216-.6h-.057c-1.226-.1-2.432-.191-3.639-.286-.32-.032-.622-.048-.943-.079-.057 0-.132-.016-.189-.016-.094-.016-.188-.016-.3-.032a.549.549 0 01-.151-.016c-.415-.032-.83-.079-1.263-.111l-1.414-.143c-.471-.048-.943-.111-1.414-.159-.113-.016-.207-.016-.32-.032a22.099 22.099 0 01-1.018-.127c-.17-.016-.339-.032-.49-.048-.339-.048-.66-.079-1-.127h-.019a231.519 231.519 0 01-30.547-5.8c-.528-.143-1.056-.27-1.584-.413-.019 0-.038-.016-.057-.016-.151-.048-.321-.079-.471-.127-1.414-.381-2.81-.779-4.2-1.192a179.04 179.04 0 01-5.732-1.732c-.509-.175-1.018-.334-1.527-.508a167.729 167.729 0 01-3.074-1.033 199.364 199.364 0 01-5.186-1.843c-1.6-.6-3.187-1.208-4.771-1.843-.038-.016-.094-.016-.132-.048-.358-.143-.717-.286-1.056-.429h-.019a214.624 214.624 0 01-25.06-12.059q-3.847-2.169-7.58-4.481c-2-1.255-3.96-2.526-5.921-3.829a193.759 193.759 0 01-26.757-21.545v-.016c-.585-.54-1.131-1.1-1.7-1.652-.094-.079-.17-.159-.245-.222-.358-.366-.7-.715-1.056-1.065v-.016a62.241 62.241 0 01-1.4-1.414 28.224 28.224 0 01-.3-.3v-.016c-.377-.381-.735-.763-1.113-1.16-.188-.191-.358-.381-.547-.572v-.016a158.692 158.692 0 01-3.262-3.559c-.283-.318-.566-.651-.867-.985a161.029 161.029 0 01-3.96-4.687v-.016c-.49-.588-.962-1.192-1.452-1.779l-1.414-1.811c-.471-.635-.962-1.255-1.433-1.891l-.057-.1c-.472-.6-.943-1.239-1.4-1.859-.358-.508-.717-1-1.075-1.493-.226-.334-.471-.667-.7-1.017a3.735 3.735 0 01-.245-.334l-1.584-2.336a147.243 147.243 0 01-1.829-2.749 37.699 37.699 0 00-.716-1.144 4.312 4.312 0 01-.245-.381 35.45 35.45 0 01-.83-1.366c-.283-.445-.566-.906-.849-1.366-.264-.445-.547-.906-.811-1.366-.207-.349-.4-.7-.6-1.049a.337.337 0 00-.057-.079c-.094-.175-.188-.334-.264-.492a.342.342 0 01-.057-.079c-.207-.35-.4-.715-.6-1.065-.264-.461-.509-.937-.773-1.4-.17-.318-.358-.651-.528-.985-.245-.461-.509-.922-.736-1.4a36.568 36.568 0 01-.754-1.446 3.339 3.339 0 01-.189-.365c-.132-.223-.226-.445-.339-.667-.3-.588-.6-1.192-.886-1.779a49.884 49.884 0 01-.962-2.018 62.64 62.64 0 01-.867-1.891l-.113-.222a151.563 151.563 0 01-9.956-30.077v-.016a147.982 147.982 0 01-2.7-17.7c-.019-.333-.057-.651-.075-.969-.339-4.02-.49-8.055-.49-12.107 0-1.8.038-3.575.094-5.354 1.316-37.217 17.066-73.045 44.84-102 .6-.636 1.207-1.271 1.829-1.907s1.263-1.255 1.886-1.875c41.921-41.366 104.676-63.484 169.065-59.586s122.749 33.346 157.222 79.336a176.308 176.308 0 015.374 7.579c17.083 25.585 26.034 54.455 25.985 83.812z" fill="#f2f2f2"/><path data-name="パス 51" d="M1293.086 365.581a563.276 563.276 0 01-102.1 12.417 151.664 151.664 0 01-15.643-.09c-11.444-.811-21.246-3.842-32.163-5.5-5.248-.794-11.094-1.374-16.378-2.232q1.831-1.914 3.728-3.782c11.393.811 22.964 3.466 34.494 4.7 19.6 2.1 41.56-.243 56.419-6.023 7.209-2.8 12.731-6.3 19.914-9.122a10.586 10.586 0 013.126-.807 12.488 12.488 0 015.9 1.289c12.052 5.127 29.549 9.293 45.791 7 1.203.801-1.097 1.71-3.088 2.15z" fill="#fff"/><path data-name="パス 52" d="M1364.956 383.622c.148-.023.3-.041.445-.062a12.165 12.165 0 01-1.755-1.114z" fill="#fff"/><path data-name="パス 53" d="M1462.18 393.736q-10.175.685-20.456 1.02a152.885 152.885 0 01-15.643-.09c-11.444-.815-21.247-3.842-32.164-5.5-10.005-1.515-22.163-2.245-28.516-5.609 16.419-2.395 33.43 2.48 50.36 4.294a142.256 142.256 0 0041.039-1.707q2.812 3.729 5.38 7.592z" fill="#fff"/><ellipse data-name="楕円形 19" cx="61.016" cy="52.558" rx="61.016" ry="52.558" transform="translate(1201.094 447.324)" fill="#ffb6b6"/><path data-name="パス 54" d="M1380.121 628.814a146.634 146.634 0 01-4.9 2.145c-.585.238-1.188.477-1.773.731-.49.191-.981.4-1.471.588-.151.064-.283.111-.415.175-.415.159-.811.318-1.226.477-.453.175-.905.349-1.339.524-.509.191-1 .381-1.509.556-1.886.715-3.79 1.4-5.695 2.05q-10.238 3.536-20.893 6.1c-.32.079-.66.159-1 .238q-4.554 1.072-9.164 1.954-8.061 1.573-16.273 2.574h-.038l-1.961.238c-.056 0-.113.016-.188.016 0 .016 0 .016-.019 0l-2.168.238a.557.557 0 01-.151.016c-.679.079-1.377.143-2.055.207l-2.206.191-1.7.143a.436.436 0 01-.151.016c-.509.032-1.018.079-1.527.111h-.075l-1.32.1c-5.261.349-10.541.508-15.9.508-5.789 0-11.54-.191-17.216-.6h-.057l-3.639-.286c-.321-.032-.622-.048-.943-.079-.057 0-.132-.016-.189-.016-.094-.016-.188-.016-.3-.032a.552.552 0 01-.151-.016c-.415-.032-.83-.079-1.263-.111l-1.414-.143c-.471-.048-.943-.111-1.414-.159-.113-.016-.207-.016-.321-.032a22.099 22.099 0 01-1.018-.127c-.17-.016-.339-.032-.49-.048-.339-.048-.66-.079-1-.127h-.019a231.5 231.5 0 01-30.547-5.8c-.528-.143-1.056-.27-1.584-.413 4.934-19.391 20.285-35.748 41.54-44.265a14.674 14.674 0 01-5.148-7.722 12.867 12.867 0 012.414-11.154 17.239 17.239 0 0110.673-6.165l27.945-4.925c9.363-1.538 18.448 3.566 20.364 11.44a13.152 13.152 0 01.377 3.527c26.917 15.088 46.28 30.738 58.517 47.357z" fill="#02e3ff"/><path data-name="パス 55" d="M1425.382 477.088c-10.371-10.191-15.3-23.712-23.593-35.285s-22.719-21.93-37.962-19.237c-10.507 1.857-18.628 9.669-22.739 18.379s-4.881 18.315-5.6 27.725c.255-19.338-14.866-38.085-35.694-44.255s-45.753.712-58.841 16.248c-11.821-9.232-29.97-9.553-42.241-.747-11.706 8.816-14.3 25.6-5.688 36.841s27.254 15.434 40.936 9.2l4.837 3.749c-2.723 8.024 2.557 17.5 11.433 20.522 7.2 2.45 17.358 2.042 20.051 8.406 1.882 4.447-1.636 9.193-5.378 12.61s-8.184 6.946-8.633 11.674c-.679 7.135 8.071 12.132 16.025 13.638 19.18 3.63 40.461-3.854 51.515-18.116q.319-.412.695-.826c12.534-13.506 17.922-30.763 14.9-47.718-.622-3.3 0-5.748 2.7-6.529 11.658-3.374 44.32 3.708 54.205 10.108s17.8 14.871 27.323 21.684 21.656 12.069 33.745 10.214c9.683-1.486 17.92-7.409 23.461-14.554s8.729-15.473 11.585-23.749c-21.414 10.421-50.717 6.058-67.042-9.982z" fill="#2f2e41"/><path data-name="パス 56" d="M172.836 371.088c0 3.861.151 7.722.471 11.551.339 4.576.924 9.12 1.716 13.632a150.64 150.64 0 0015.123 44.059l1.131 2.1.566 1.049c.189.35.4.7.585 1.033.264.461.509.906.773 1.351.321.556.641 1.112.98 1.668.038.064.075.143.132.222.283.477.547.937.849 1.414a2.646 2.646 0 00.189.3c.321.54.66 1.1 1 1.637.377.572.736 1.16 1.113 1.732a151.72 151.72 0 002.81 4.21c.283.413.566.826.867 1.239.264.381.528.763.811 1.144.189.254.377.524.566.779.3.429.6.842.924 1.271.7.937 1.414 1.875 2.112 2.812h.019c.321.429.66.858 1 1.271v.016c1 1.271 2.036 2.542 3.074 3.8a.021.021 0 01.014 0 .015.015 0 01.005.011c.83 1.017 1.7 2 2.546 2.987v.016c.566.62 1.113 1.255 1.678 1.875.453.508.924 1.033 1.4 1.541.094.111.207.207.3.318v.016c.132.143.264.27.4.413q3 3.241 6.185 6.339l.339.334c.113.111.245.222.358.349.189.175.358.35.547.524.17.175.358.35.547.524a198.231 198.231 0 0037.392 27.789c1.829 1.065 3.7 2.1 5.563 3.1.471.254.943.508 1.414.747.132.079.283.159.415.238.264.127.509.254.773.4.245.127.49.254.754.381 1 .524 2.018 1.033 3.036 1.541.245.127.509.254.773.381.245.111.509.238.773.365 0 .016 0 .016.019.016h.019v.016h.019q1.9.929 3.847 1.811c.7.318 1.414.651 2.131.953 1.622.747 3.262 1.462 4.9 2.145.585.238 1.188.477 1.772.731.49.191.98.4 1.471.588.151.064.283.111.415.175.415.159.811.318 1.226.477.453.175.905.35 1.339.524.509.191 1 .381 1.508.556 1.886.715 3.79 1.4 5.695 2.05q10.238 3.536 20.893 6.1c.321.079.66.159 1 .238q4.554 1.072 9.164 1.954 8.061 1.573 16.273 2.574h.038l1.961.238c.057 0 .113.016.189.016 0 .016 0 .016.019 0l2.168.238a.553.553 0 00.151.016c.679.079 1.377.143 2.055.207l2.206.191 1.7.143a.428.428 0 00.151.016c.509.032 1.018.079 1.527.111h.075l1.32.1c5.261.35 10.541.508 15.9.508 5.789 0 11.54-.191 17.216-.6h.057l3.639-.286c.321-.032.622-.048.943-.079.057 0 .132-.016.189-.016.094-.016.189-.016.3-.032a.553.553 0 00.151-.016c.415-.032.83-.079 1.263-.111l1.414-.143c.471-.048.943-.111 1.414-.159.113-.016.207-.016.321-.032.339-.032.679-.079 1.018-.127.17-.016.339-.032.49-.048.339-.048.66-.079 1-.127h.019a231.486 231.486 0 0030.547-5.8c.528-.143 1.056-.27 1.584-.413.019 0 .038-.016.057-.016.151-.048.321-.079.471-.127 1.414-.381 2.81-.779 4.2-1.192a179.04 179.04 0 005.732-1.732c.509-.175 1.018-.334 1.527-.508 1.037-.334 2.055-.683 3.074-1.033 1.735-.588 3.47-1.208 5.185-1.843 1.6-.6 3.187-1.208 4.771-1.843.038-.016.094-.016.132-.048.358-.143.717-.286 1.056-.429h.019a214.624 214.624 0 0025.06-12.059q3.847-2.169 7.58-4.481c2-1.255 3.96-2.526 5.921-3.829a193.771 193.771 0 0026.757-21.545v-.016c.585-.54 1.131-1.1 1.7-1.652.094-.079.17-.159.245-.223.358-.365.7-.715 1.056-1.064v-.016c.471-.461.943-.937 1.4-1.414.113-.111.207-.206.3-.3v-.016c.377-.381.735-.763 1.113-1.16.189-.191.358-.381.547-.572v-.016a158.692 158.692 0 003.262-3.559c.283-.318.566-.651.867-.985a159.466 159.466 0 003.96-4.687v-.016c.49-.588.962-1.192 1.452-1.78l1.414-1.811c.471-.635.962-1.255 1.433-1.891l.057-.1c.471-.6.943-1.239 1.4-1.859.358-.508.717-1 1.075-1.494.226-.334.471-.667.7-1.017a3.76 3.76 0 00.245-.334l1.584-2.336c.622-.906 1.226-1.827 1.829-2.749.226-.381.471-.763.716-1.144a4.307 4.307 0 00.245-.381c.283-.445.566-.906.83-1.366.283-.445.566-.906.849-1.366.264-.445.547-.906.811-1.366.207-.35.4-.7.6-1.049a.337.337 0 01.057-.079c.094-.175.189-.334.264-.492a.335.335 0 00.056-.08c.208-.349.4-.715.6-1.064.264-.461.509-.937.773-1.4.17-.318.358-.651.528-.985.245-.461.509-.921.735-1.4.264-.477.509-.953.754-1.446a3.4 3.4 0 00.189-.366c.132-.222.226-.445.339-.667.3-.588.6-1.192.886-1.78.339-.667.66-1.35.962-2.018.3-.62.584-1.255.867-1.891l.113-.223a151.559 151.559 0 009.956-30.077v-.016a147.994 147.994 0 002.7-17.7c.019-.334.057-.651.076-.969.339-4.02.49-8.055.49-12.107 0-1.8-.038-3.575-.094-5.354-1.316-37.216-17.066-73.045-44.84-102-.6-.636-1.207-1.271-1.829-1.907s-1.263-1.255-1.886-1.875c-41.92-41.366-104.676-63.484-169.065-59.586S238.689 233.71 204.216 279.7a178.895 178.895 0 00-5.374 7.579c-17.083 25.585-26.033 54.455-25.984 83.811z" fill="#f2f2f2"/><path data-name="パス 57" d="M367.918 259.128a563.27 563.27 0 00102.1 12.417 151.656 151.656 0 0015.643-.09c11.444-.811 21.246-3.842 32.163-5.5 5.248-.794 11.094-1.374 16.378-2.232q-1.831-1.914-3.728-3.782c-11.393.811-22.964 3.466-34.494 4.7-19.6 2.1-41.561-.243-56.419-6.023-7.209-2.8-12.731-6.3-19.914-9.122a10.586 10.586 0 00-3.126-.807 12.487 12.487 0 00-5.9 1.289c-12.052 5.126-29.549 9.293-45.791 7-1.203.801 1.097 1.71 3.088 2.15z" fill="#fff"/><path data-name="パス 58" d="M296.048 277.169c-.148-.023-.3-.041-.445-.062a12.159 12.159 0 001.755-1.114z" fill="#fff"/><path data-name="パス 59" d="M198.824 287.284q10.175.685 20.456 1.02a152.887 152.887 0 0015.644-.09c11.444-.815 21.246-3.842 32.163-5.5 10.005-1.515 22.163-2.245 28.516-5.609-16.419-2.395-33.43 2.48-50.36 4.294a142.256 142.256 0 01-41.039-1.707q-2.812 3.729-5.38 7.592z" fill="#fff"/><path data-name="パス 60" d="M280.882 522.362c1.622.747 3.262 1.462 4.9 2.145.585.238 1.188.477 1.772.731.49.191.98.4 1.471.588.151.064.283.111.415.175.415.159.811.318 1.226.477.453.175.905.35 1.339.524.509.191 1 .381 1.508.556 1.886.715 3.79 1.4 5.695 2.05q10.238 3.536 20.893 6.1c.321.079.66.159 1 .238q4.554 1.073 9.164 1.954 8.061 1.573 16.273 2.574h.038l1.961.238c.057 0 .113.016.189.016 0 .016 0 .016.019 0l2.168.238a.552.552 0 00.151.016c.679.079 1.377.143 2.055.207l2.206.191 1.7.143a.431.431 0 00.151.016c.509.032 1.018.079 1.527.111h.075l1.32.1c5.261.35 10.541.508 15.9.508 5.789 0 11.54-.191 17.216-.6h.057l3.639-.286c.321-.032.622-.048.943-.079.057 0 .132-.016.189-.016.094-.016.189-.016.3-.032a.554.554 0 00.151-.016c.415-.032.83-.079 1.263-.111l1.414-.143c.471-.048.943-.111 1.414-.159.113-.016.207-.016.321-.032.339-.032.679-.079 1.018-.127.17-.016.339-.032.49-.048.339-.048.66-.079 1-.127h.014a231.5 231.5 0 0030.547-5.8c.528-.143 1.056-.27 1.584-.413-4.935-19.391-20.285-35.748-41.54-44.265a14.675 14.675 0 005.148-7.722 12.868 12.868 0 00-2.414-11.154 17.239 17.239 0 00-10.673-6.165l-27.945-4.925c-9.363-1.538-18.448 3.566-20.365 11.44a13.153 13.153 0 00-.377 3.527c-26.907 15.088-46.273 30.738-58.51 47.357z" fill="#02e3ff"/><ellipse data-name="楕円形 20" cx="68.02" cy="57.315" rx="68.02" ry="57.315" transform="translate(323.413 329.508)" fill="#9e616a"/><path data-name="パス 61" d="M381.767 441.074c-17.029 3.875-35.8-1.277-49.092-11.05s-21.6-23.621-26.392-37.926c-3.508-10.476-5.171-22.105.365-31.94s20.435-16.471 31.929-11.5c-7.091-6.961-3.548-18.475 4.733-24.43s19.653-7.662 30.484-8.6c15.718-1.354 31.955-1.506 46.912 2.785s28.547 13.672 33.229 26.388c9.833 3.858 21.517 1.635 28.429-5.408 1.782 8.086-3.1 16.174-11.9 19.729l22.917-6.261c3.941 7.029-2.965 15.73-11.8 17.981s-18.359-.208-26.739-3.46-16.5-7.364-25.605-8.632-19.8 1.2-24.007 8.114c-2.205 3.623-2.32 7.867-3.6 11.793s-4.524 8-9.341 8.319c-3.044.2-6.024-1.163-9.059-.884-3.806.632-6.807 3.1-7.645 6.294a20.43 20.43 0 00-.027 9.5l5.821 37.494z" fill="#2f2e41"/><g data-name="グループ 68"><path data-name="パス 45" d="M1280.16 405.953a10.817 10.817 0 01-3.571-.608c-3.455-1.169-5.7-4.005-5.664-7.142v-7.765c0-3.391-3.266-6.14-7.29-6.143-5.066 0-9.171-3.464-9.177-7.733V270.183c.006-4.268 4.11-7.727 9.176-7.732h418.28c5.066 0 9.171 3.464 9.177 7.732v106.381c-.005 4.269-4.111 7.728-9.177 7.732h-369.308a7.985 7.985 0 00-5.156 1.8l-20.859 17.576a9.95 9.95 0 01-6.431 2.284z" fill="#fff"/><path data-name="パス 46" d="M1280.16 407.544a12.97 12.97 0 01-4.293-.729c-4.164-1.41-6.874-4.829-6.827-8.61v-7.764c0-2.514-2.421-4.552-5.4-4.556-6.107-.006-11.056-4.176-11.062-9.322v-106.38c.007-5.145 4.955-9.315 11.061-9.321h418.28c6.106.006 11.055 4.176 11.062 9.321v106.381c-.007 5.146-4.955 9.316-11.062 9.322h-369.313a5.914 5.914 0 00-3.823 1.334l-20.859 17.575a12.021 12.021 0 01-7.764 2.749zm-16.526-143.5c-4.025 0-7.286 2.752-7.29 6.144v106.376c0 3.392 3.266 6.141 7.291 6.144 5.066.005 9.17 3.465 9.176 7.733v7.764a6.232 6.232 0 004.5 5.674 8.311 8.311 0 007.945-1.332l20.859-17.575a10.042 10.042 0 016.489-2.265h369.31c4.025 0 7.287-2.753 7.291-6.144v-106.38c0-3.392-3.266-6.14-7.291-6.144z" fill="#3f3d56"/><path data-name="パス 47" d="M1645.97 310.613h-339.182c-2.7 0-4.885-1.843-4.885-4.116s2.187-4.116 4.885-4.116h339.182c2.7 0 4.885 1.843 4.885 4.116s-2.187 4.116-4.885 4.116z" fill="#02e3ff"/><path data-name="パス 48" d="M1645.347 328.1h-338.559c-2.7 0-4.885-1.843-4.885-4.116s2.187-4.116 4.885-4.116h338.559c2.7 0 4.885 1.843 4.885 4.116s-2.187 4.116-4.885 4.116z" fill="#e6e6e6"/><path data-name="パス 49" d="M1645.01 345.588h-338.222c-2.7 0-4.885-1.843-4.885-4.116s2.187-4.116 4.885-4.116h338.222c2.7 0 4.885 1.843 4.885 4.116s-2.187 4.116-4.885 4.116z" fill="#e6e6e6"/></g><g data-name="グループ 67"><path data-name="パス 45" d="M489.973 248.079a10.817 10.817 0 003.571-.608c3.455-1.169 5.7-4.005 5.664-7.142v-7.765c0-3.391 3.266-6.14 7.29-6.143 5.066 0 9.171-3.464 9.177-7.733V112.309c-.006-4.268-4.11-7.727-9.176-7.732H88.218c-5.066 0-9.171 3.464-9.177 7.732V218.69c.005 4.269 4.111 7.728 9.177 7.732h369.311a7.985 7.985 0 015.156 1.8l20.859 17.576a9.95 9.95 0 006.431 2.284z" fill="#fff"/><path data-name="パス 46" d="M489.972 249.67a12.97 12.97 0 004.293-.729c4.164-1.41 6.874-4.829 6.827-8.61v-7.764c0-2.514 2.42-4.552 5.4-4.556 6.107-.006 11.056-4.176 11.063-9.322v-106.38c-.007-5.145-4.955-9.315-11.062-9.321H88.218c-6.106.006-11.055 4.176-11.062 9.321V218.69c.007 5.146 4.955 9.316 11.062 9.322h369.309a5.914 5.914 0 013.823 1.334l20.859 17.575a12.021 12.021 0 007.763 2.749zm16.526-143.5c4.025 0 7.286 2.752 7.29 6.144V218.69c0 3.392-3.266 6.141-7.291 6.144-5.066.005-9.17 3.465-9.176 7.733v7.764a6.232 6.232 0 01-4.5 5.674 8.311 8.311 0 01-7.945-1.332l-20.859-17.575a10.042 10.042 0 00-6.489-2.265H88.218c-4.025 0-7.287-2.753-7.291-6.144v-106.38c0-3.392 3.266-6.14 7.291-6.144z" fill="#3f3d56"/><path data-name="パス 47" d="M124.161 152.739h339.182c2.7 0 4.885-1.843 4.885-4.116s-2.187-4.116-4.885-4.116H124.161c-2.7 0-4.885 1.843-4.885 4.116s2.187 4.116 4.885 4.116z" fill="#02e3ff"/><path data-name="パス 48" d="M124.784 170.226h338.559c2.7 0 4.885-1.843 4.885-4.116s-2.187-4.116-4.885-4.116H124.784c-2.7 0-4.885 1.843-4.885 4.116s2.187 4.116 4.885 4.116z" fill="#e6e6e6"/><path data-name="パス 49" d="M125.121 187.714h338.222c2.7 0 4.885-1.843 4.885-4.116s-2.187-4.116-4.885-4.116H125.121c-2.7 0-4.885 1.843-4.885 4.116s2.187 4.116 4.885 4.116z" fill="#e6e6e6"/></g><g data-name="グループ 74"><path data-name="パス 373" d="M1024.009 560.219v1.265q-.044 4.758-.279 9.473c-5.8 111.683-99.637 199.535-213.9 200.266s-209.261-85.912-216.558-197.51q-.44-6.7-.44-13.492a206.889 206.889 0 0139.648-121.959q3.1-4.306 6.453-8.454c1.54-1.923 3.124-3.8 4.722-5.669 75.7-87.769 209.225-100.169 300.444-27.9 2.6 2.053 5.148 4.177 7.641 6.344q2.992 2.605 5.881 5.325a208.642 208.642 0 0165.644 134.573q.744 8.782.744 17.738z" fill="#02e3ff"/><path data-name="パス 374" d="M638.929 429.808a1.206 1.206 0 01.293.172c1.159.933-.293 2.727-.117 4.205.205 1.895 2.786 2.311 4.737 2.5s4.414 1.737 3.49 3.43c-4.9 1.651-9.855.029-14.856-1.852a206.888 206.888 0 00-39.642 121.957q0 6.8.44 13.492a5.61 5.61 0 001.335.7c1.467.545 3.168.445 4.517 1.22 1.071.617 1.789 1.708 2.86 2.282 3.065 1.636 7.318-1.507 10.178.445a26.013 26.013 0 012.1 2.1c2.64 2.239 6.981.732 10.031 2.411 1.965 1.077 2.977 3.229 4.033 5.181 2.625 4.88 6.878 9.674 12.5 10.061a34.378 34.378 0 015.309.172c1.731.388 3.432 1.866 3.153 3.574-.484 2.942 1 6.157.6 9.1-.719 5.382-8.506 7.736-9.166 13.119a31.742 31.742 0 01-.205 3.545c-.352 1.407-1.437 2.555-1.818 3.961-.733 2.655 1.217 5.311 3.344 7.09s4.693 3.344 5.866 5.842c1.232 2.655.631 5.741 1.027 8.626.88 6.3 6.438 10.966 12.158 13.98a12.685 12.685 0 014.752 3.387c1.467 2.081 1.32 4.823 1.819 7.306 1.2 6.071 6.424 11.081 6.57 17.267.1 4.406-2.391 8.4-3.886 12.544a28.368 28.368 0 00-1.335 13.549 216.544 216.544 0 0026.582 18.876 7.5 7.5 0 001.1-2.411 4.731 4.731 0 00-2.273-4.937 12.091 12.091 0 004.209-2.641 3.976 3.976 0 00.763-4.564c2.581.316 5.646.474 7.348-1.464 1.364-1.55 1.276-3.875.733-5.842s-1.452-3.89-1.467-5.942a111.584 111.584 0 0017.922-.588 11.435 11.435 0 00-5.456-6.688c2.7-.445 5.148-3.6 6-6.143a15.325 15.325 0 00.117-7.937 3.03 3.03 0 012.053-4.091q6.688-3.768 13.375-7.521a8.057 8.057 0 002.141-1.536c1.393-1.622 1.188-4.048.469-6.043s-1.863-3.875-2.141-5.971c-.821-6.272 6.042-10.779 8.36-16.692a24.583 24.583 0 001.261-7.306c.191-2.67.205-5.755-1.877-7.463-2.009-1.651-5.133-1.277-7.23-2.813-1.921-1.407-2.581-4.119-4.678-5.253-1.907-1.033-4.282-.373-6.409-.861-3.725-.847-6.072-5.052-9.885-5.44-2.141-.23-4.576.8-6.336-.416-1.555-1.091-1.613-3.258-1.907-5.1a14.391 14.391 0 00-11.733-11.511c-2.214-.344-4.62-.215-6.512-1.407s-2.772-3.459-4.282-5.138c-2.405-2.684-6.218-3.646-9.782-4.464q-7.26-1.658-14.5-3.33c-2.567-.6-5.881-.919-7.274 1.292a9.562 9.562 0 00-.851 2.655 8.392 8.392 0 01-7.89 5.8 9.3 9.3 0 00-5.485-4.162 35.239 35.239 0 01-4.458-1.033 6.152 6.152 0 01-3.216-3.673 6 6 0 01.517-4.81 7.5 7.5 0 00-1.335-9.143c-2.464-2.167-6.028-2.7-9.342-2.483-.865-1.852.587-3.933 2.141-5.282s3.461-2.655 3.8-4.665c.543-3.158-3.578-5.555-6.7-4.622s-5.118 3.918-6.438 6.846a20.5 20.5 0 01-2.6 4.866 5.148 5.148 0 01-4.928 1.981c-2.581-.646-3.564-3.646-4.136-6.172a39.438 39.438 0 01-1.378-10.348 13.363 13.363 0 013.989-9.416c4.268-3.847 10.838-3.473 16.6-2.856a4.074 4.074 0 01.44-5.454 6.437 6.437 0 015.743-1.378 7.921 7.921 0 014.444 2.6c1.643 1.952 2.112 4.607 3.344 6.818s4.033 4.119 6.306 2.928c1.98-1.033 2.288-3.7 1.8-5.842s-1.54-4.205-1.364-6.387c.337-4.148 4.752-6.66 8.638-8.368s8.33-4.019 8.946-8.152a7.478 7.478 0 01.469-2.354 4.662 4.662 0 011.745-1.608c11.337-7.334 22.879-14.769 35.843-18.774.675-.215.748.014 1.437-.144.968-.545.323-2.052-.6-2.655s-2.156-1.076-2.391-2.139c-.161-.775.308-1.55.425-2.34a2.9 2.9 0 00-1.156-2.5 3.037 3.037 0 00-2.76-.461c-1.041-1.349 1.012-2.914 2.684-3.373a74.768 74.768 0 0115.326-2.44 2.781 2.781 0 011.745.287 2 2 0 01.132 2.784 15.937 15.937 0 01-2.332 2.081 6.178 6.178 0 00-1.672 6.3c2.713 1.349 5.646 2.741 8.653 2.268s5.646-3.775 4.238-6.4c-1.305-2.454-5.25-3.014-5.925-5.7-.792-3.143 3.754-5.942 2.728-9.014-.44-1.349-1.819-2.153-2.875-3.115a8.361 8.361 0 01-1.892-9.387 11.082 11.082 0 01-9.562-2.928c-2.288-2.253-4.106-5.827-7.362-5.712-2.977.086-5.544 3.488-8.33 2.454-.689-.258-1.408-.775-2.068-.474a1.668 1.668 0 00-.777 1.249c-.7 3.316.513 7.09-1.335 9.961-2.009 3.115-6.658 3.545-9.093 6.358-1.32 1.521-1.833 3.574-3.051 5.181s-3.784 2.641-5.25 1.234a6.974 6.974 0 00-1.965-8.612 19.071 19.071 0 00-4.341-2.067 25.932 25.932 0 01-4.854-2.641 4.75 4.75 0 01-1.775-1.866 4.205 4.205 0 01.117-2.957 12.286 12.286 0 019.811-7.952c1.936-.258 4.194-.172 5.485-1.622.675-.761 1.027-1.923 2.024-2.225a3.009 3.009 0 011.863.215c2.42.833 4.825 1.665 7.245 2.5a5.059 5.059 0 002.581.416 1.709 1.709 0 001.511-1.794c-.235-1.177-2.083-1.737-1.907-2.928a1.854 1.854 0 01.6-1 26.214 26.214 0 0120.557-7.933c.909 1.478-.528 3.215-1.745 4.464s-2.171 3.5-.7 4.464a3.933 3.933 0 001.921.431 17.028 17.028 0 015.133 1.521 99.28 99.28 0 017.377 3.5 8.916 8.916 0 01.176-4.65 3.24 3.24 0 013.813-2.024c1.437.545 2.171 2.411 3.71 2.583 2.039.23 2.845-2.727 1.995-4.564s-2.552-3.359-2.684-5.382c-.1-1.349.425-3.028-.675-3.847a2.959 2.959 0 00-1.305-.459q-13.815-2.476-27.645-4.966c-1.643-.3-4-.072-4.077 1.55-.044.919.792 1.823.425 2.655-.4.89-1.687.818-2.625 1.134a3.474 3.474 0 00-2.054 3.69 9.936 9.936 0 001.731 4.148c-1.8-.732-4.517-.861-6.321-1.608a23.4 23.4 0 00-1.584-5.956 2.1 2.1 0 00-1-1.486 2.189 2.189 0 00-1.8-.207c-2.376.359-4.752.7-7.128 1.062a2.792 2.792 0 00-1.628.617c-.924.962-.015 2.5-.044 3.818a3.607 3.607 0 01-2.831 3.086 10.9 10.9 0 01-4.517-.057l-9.978-1.51a16.362 16.362 0 007.538-4.937c1.32-1.521 2.024-4.363.117-5.081a4.646 4.646 0 00-1.731-.129c-4.517.029-8.081-3.66-12.3-5.224a12.329 12.329 0 00-4.15-.746z" fill="#3f3d56"/><path data-name="パス 375" d="M1023.731 570.955a5.34 5.34 0 01-4.488 2.081c-4.59-.388-6.526-6.861-11.073-7.593a1.807 1.807 0 00-1.2.115c-.675.359-.792 1.249-.836 2-.191 3.7-.352 7.55 1.129 10.966 2.156 4.995 7.744 9.186 6.57 14.482-6.306-2.856-9.591-9.789-11.073-16.434s-1.73-13.621-4.4-19.908c-2.038 2.54-6.292.445-8.14-2.225-1.76-2.526-2.845-5.454-4.546-8.023s-4.312-4.851-7.421-4.995c-3.27-.144-6.116 2.052-8.609 4.134a19.648 19.648 0 00-5.353 5.827c-1.745 3.445-1.291 7.492-1.379 11.325-.088 4.134-.983 8.511-3.872 11.554s-8.213 4.091-11.4 1.349a12.51 12.51 0 01-3.182-5.612 268.573 268.573 0 01-8.618-30.117c-.528 2.325-2.625 5.325-4.62 3.961a4.044 4.044 0 01-1.056-1.349c-3.725-6.157-10.6-9.86-17.57-12.085s-14.27-3.244-21.148-5.684a54.552 54.552 0 01-10.985-5.354 8.312 8.312 0 00-.528 8.64 7.136 7.136 0 007.949 3.258c1.525-.488 2.816-1.521 4.326-2.038s3.549-.258 4.209 1.177c.645 1.364-.323 3.014.161 4.449.719 2.167 4.077 2.34 5.25 4.32a3.942 3.942 0 01-1.1 4.622 19.842 19.842 0 01-4.429 2.67c-4.928 2.684-8.433 7.263-12.745 10.822s-10.4 6.172-15.531 3.89c1.217-6.071-6.16-10.521-7.524-16.563-.455-2-.22-4.1-.851-6.043-.924-2.813-3.476-4.736-5.558-6.861a26.644 26.644 0 01-7.553-19.592c.117-2.5.587-5.038 0-7.478s-2.64-4.78-5.192-4.679c-5.822.258-13.17.689-16.22-4.177-1.1-1.737-1.569-4.277.015-5.612 1.115-.933 2.757-.847 4.209-.7 4.385.416 8.756.847 13.141 1.263 3.065.287 6.38.531 9.02-1.033s3.784-5.741 1.335-7.593c-1.775-1.349-4.972-1.277-5.5-3.416-.425-1.794 1.6-3.818.5-5.325-.777-1.062-2.537-.775-3.608.029a23.425 23.425 0 01-3.036 2.6c-2.1 1.062-4.59.043-6.849-.646s-5.28-.746-6.365 1.306c-1.232 2.282 1.071 5.3-.132 7.593-1.613 3.028-7.04 1.306-9.3 3.918-2.581 2.985 1.76 7.464.895 11.281a7.321 7.321 0 01-7.084-.388 6.658 6.658 0 01-2.962-6.258c.205-1.722 1.129-3.488.513-5.11a6.048 6.048 0 00-3.095-2.77q-6.38-3.466-12.759-6.9c-1.188 2.153.308 4.808 2.185 6.43s4.209 2.828 5.441 4.952a6.433 6.433 0 01-2.493 8.583 1.576 1.576 0 01-1.276.215 1.735 1.735 0 01-.821-1.076c-2.244-5.641-5.632-11.2-11.029-14.138s-13.17-2.34-16.719 2.612c-.836 1.177-1.408 2.526-2.141 3.775-3.886 6.617-12.246 9.746-20.048 9.545a3.932 3.932 0 01-2.185-.5c-1.261-.847-1.2-2.655-1.012-4.148.279-2.11.543-4.205.821-6.315a5 5 0 011.423-3.459c1.452-1.12 3.534-.416 5.382-.445a6.758 6.758 0 006.174-4.665 7.394 7.394 0 00-2.141-7.464c-.836-.775-1.965-1.751-1.525-2.8a2.379 2.379 0 011.657-1.091c3.3-.933 6.8-1.177 10.046-2.3s6.409-3.373 7.186-6.66c.235-1 .337-2.225 1.261-2.727a4.163 4.163 0 011.467-.287 7.027 7.027 0 006.116-7.277c1.555-1.062 3.74-.273 5.25.861s2.831 2.627 4.664 3.115c3.417.919 6.717-2.052 10.266-2.067 1.5 0 3.036.517 4.429.014 1.423-.5 2.273-1.88 3.359-2.9s3.006-1.651 4.018-.545c-.293-2.081-.572-4.148-.865-6.215a12.707 12.707 0 0010.163-1.809c-3.7-1.22-7.377-2.44-11.073-3.66a2.406 2.406 0 01-1.041-.545c-.807-.847 0-2.167.645-3.129 1.569-2.311 1.833-6.114-.748-7.263-1.76-.789-3.769.158-5.456 1.076-2.7 1.464-5.4 2.942-8.1 4.406-.249 1.507 1.628 2.368 2.786 3.373a4.508 4.508 0 011.277 5.021 4.669 4.669 0 01-4.327 2.973 5.634 5.634 0 011.041 4.837l-5.441.388a2.378 2.378 0 01-1.76-.345c-.587-.5-.5-1.392-.645-2.139a4.69 4.69 0 00-3.989-3.4 14.058 14.058 0 00-5.558.5 3.456 3.456 0 01-2.405-.057 2.356 2.356 0 01-.939-1.177 5.9 5.9 0 011.232-5.77 33.489 33.489 0 014.634-4.177 26.391 26.391 0 008.051-12.2c2.992-1.234 6.086-2.9 9.093-4.134a36.875 36.875 0 017.553-2.483 36.461 36.461 0 017.406-.344c3.373.057 6.761.115 10.134.187a24.881 24.881 0 018.873 1.249c2.772 1.12 5.221 3.545 5.412 6.473a1.964 1.964 0 01-.66 1.823 2.418 2.418 0 01-1.271.287c-2.8.086-3.989.775-6.79.876 1.775 1.852 3.769 3.8 6.35 4.134 4.546.574 7.817-4.033 9.914-8.038a3.972 3.972 0 004.18 3.631 8.538 8.538 0 003.153-1.206 63.092 63.092 0 0129.405-7.435 3.1 3.1 0 012.42-3.416c2.1-.4 3.974 1.364 4.986 3.2s1.628 3.961 3.241 5.339 4.693 1.306 5.324-.675c.616-1.909-1.423-3.545-3.109-4.679s-3.476-3.2-2.332-4.866c8.623-1.88 17.32-3.746 26.164-4.119a11.351 11.351 0 004.4-.746 3.336 3.336 0 002.053-3.545 10.109 10.109 0 01-10.413-3.847c9.078-.732 18.582-1.378 27.308.617l7.641 6.344c-1.452 1.478-3.388 2.871-2.332 4.349a3.294 3.294 0 002.684.9c1.848.029 3.7.072 5.529.072a208.644 208.644 0 0165.644 134.573c-3.08-.115-5.91 3.7-5.514 7.033.469 3.861 3.314 6.961 5.353 10.291a15.579 15.579 0 01.909 1.679z" fill="#3f3d56"/></g><g data-name="グループ 72"><path data-name="パス 45" d="M507.858 804.45a10.723 10.723 0 01-3.554-.608c-3.439-1.169-5.677-4.005-5.638-7.142v-7.765c0-3.391-3.251-6.14-7.257-6.143-5.042 0-9.129-3.464-9.134-7.733V668.68c.006-4.268 4.091-7.727 9.134-7.732h416.349c5.043 0 9.129 3.464 9.135 7.732v106.381c-.005 4.269-4.092 7.728-9.134 7.732H540.15a7.925 7.925 0 00-5.132 1.8l-20.76 17.576a9.876 9.876 0 01-6.4 2.284z" fill="#fff"/><path data-name="パス 46" d="M507.854 806.041a12.856 12.856 0 01-4.273-.729c-4.144-1.41-6.842-4.829-6.8-8.61v-7.764c0-2.514-2.409-4.552-5.38-4.556-6.079-.006-11-4.176-11.012-9.322V668.68c.007-5.145 4.932-9.315 11.011-9.321h416.356c6.078.006 11 4.176 11.011 9.321v106.381c-.007 5.146-4.932 9.316-11.011 9.322H540.15a5.869 5.869 0 00-3.805 1.334l-20.764 17.575a11.932 11.932 0 01-7.727 2.749zm-16.45-143.5c-4.006 0-7.253 2.752-7.257 6.144v106.376c0 3.392 3.251 6.141 7.258 6.144 5.042.005 9.128 3.465 9.134 7.733v7.764a6.227 6.227 0 004.481 5.674 8.243 8.243 0 007.908-1.332l20.763-17.575a9.968 9.968 0 016.459-2.265h367.606c4.007 0 7.254-2.753 7.258-6.144V668.68c0-3.392-3.251-6.14-7.257-6.144z" fill="#3f3d56"/><path data-name="パス 47" d="M871.977 709.11H534.359c-2.686 0-4.863-1.843-4.863-4.116s2.177-4.116 4.863-4.116h337.618c2.685 0 4.863 1.843 4.863 4.116s-2.178 4.116-4.863 4.116z" fill="#02e3ff"/><path data-name="パス 48" d="M871.357 726.597h-337c-2.686 0-4.863-1.843-4.863-4.116s2.177-4.116 4.863-4.116h337c2.686 0 4.863 1.843 4.863 4.116s-2.177 4.116-4.863 4.116z" fill="#e6e6e6"/><path data-name="パス 49" d="M871.023 744.085H534.36c-2.686 0-4.863-1.843-4.863-4.116s2.177-4.116 4.863-4.116h336.663c2.685 0 4.863 1.843 4.863 4.116s-2.177 4.116-4.863 4.116z" fill="#e6e6e6"/></g></g></svg>